<svg width="777" height="110" viewBox="0 0 777 110" fill="none" xmlns="http://www.w3.org/2000/svg">
<path d="M8.73488 48.112C8.73488 49.04 8.41488 49.8133 7.77488 50.432C7.14554 51.04 6.18021 51.344 4.87888 51.344H2.73488V56H1.27888V44.848H4.87888C6.13754 44.848 7.09221 45.152 7.74288 45.76C8.40421 46.368 8.73488 47.152 8.73488 48.112ZM4.87888 50.144C5.68954 50.144 6.28688 49.968 6.67088 49.616C7.05488 49.264 7.24688 48.7627 7.24688 48.112C7.24688 46.736 6.45754 46.048 4.87888 46.048H2.73488V50.144H4.87888ZM12.0005 48.656C12.2565 48.1547 12.6192 47.7653 13.0885 47.488C13.5685 47.2107 14.1498 47.072 14.8325 47.072V48.576H14.4485C12.8165 48.576 12.0005 49.4613 12.0005 51.232V56H10.5445V47.232H12.0005V48.656ZM20.3373 56.144C19.5159 56.144 18.7693 55.9573 18.0973 55.584C17.4359 55.2107 16.9133 54.6827 16.5293 54C16.1559 53.3067 15.9693 52.5067 15.9693 51.6C15.9693 50.704 16.1613 49.9147 16.5453 49.232C16.9399 48.5387 17.4733 48.0107 18.1453 47.648C18.8173 47.2747 19.5693 47.088 20.4013 47.088C21.2333 47.088 21.9853 47.2747 22.6573 47.648C23.3293 48.0107 23.8573 48.5333 24.2413 49.216C24.6359 49.8987 24.8333 50.6933 24.8333 51.6C24.8333 52.5067 24.6306 53.3067 24.2253 54C23.8306 54.6827 23.2919 55.2107 22.6093 55.584C21.9266 55.9573 21.1693 56.144 20.3373 56.144ZM20.3373 54.864C20.8599 54.864 21.3506 54.7413 21.8093 54.496C22.2679 54.2507 22.6359 53.8827 22.9133 53.392C23.2013 52.9013 23.3453 52.304 23.3453 51.6C23.3453 50.896 23.2066 50.2987 22.9293 49.808C22.6519 49.3173 22.2893 48.9547 21.8413 48.72C21.3933 48.4747 20.9079 48.352 20.3853 48.352C19.8519 48.352 19.3613 48.4747 18.9133 48.72C18.4759 48.9547 18.1239 49.3173 17.8573 49.808C17.5906 50.2987 17.4573 50.896 17.4573 51.6C17.4573 52.3147 17.5853 52.9173 17.8413 53.408C18.1079 53.8987 18.4599 54.2667 18.8973 54.512C19.3346 54.7467 19.8146 54.864 20.3373 54.864ZM27.5316 45.808C27.2543 45.808 27.0196 45.712 26.8276 45.52C26.6463 45.328 26.5556 45.0933 26.5556 44.816C26.5556 44.5387 26.6463 44.304 26.8276 44.112C27.0196 43.92 27.2543 43.824 27.5316 43.824C27.809 43.824 28.0383 43.92 28.2196 44.112C28.4116 44.304 28.5076 44.5387 28.5076 44.816C28.5076 45.0933 28.4116 45.328 28.2196 45.52C28.0383 45.712 27.809 45.808 27.5316 45.808ZM28.2516 57.904C28.2516 58.6827 28.0543 59.2533 27.6596 59.616C27.265 59.9787 26.689 60.16 25.9316 60.16H25.0836V58.928H25.6916C26.097 58.928 26.3796 58.848 26.5396 58.688C26.7103 58.528 26.7956 58.256 26.7956 57.872V47.232H28.2516V57.904ZM38.7164 51.28C38.7164 51.5573 38.7004 51.8507 38.6684 52.16H31.6604C31.7137 53.024 32.007 53.7013 32.5404 54.192C33.0844 54.672 33.7404 54.912 34.5084 54.912C35.1377 54.912 35.6604 54.768 36.0764 54.48C36.503 54.1813 36.8017 53.7867 36.9724 53.296H38.5404C38.3057 54.1387 37.8364 54.8267 37.1324 55.36C36.4284 55.8827 35.5537 56.144 34.5084 56.144C33.6764 56.144 32.9297 55.9573 32.2684 55.584C31.6177 55.2107 31.1057 54.6827 30.7324 54C30.359 53.3067 30.1724 52.5067 30.1724 51.6C30.1724 50.6933 30.3537 49.8987 30.7164 49.216C31.079 48.5333 31.5857 48.0107 32.2364 47.648C32.8977 47.2747 33.655 47.088 34.5084 47.088C35.3404 47.088 36.0764 47.2693 36.7164 47.632C37.3564 47.9947 37.847 48.496 38.1884 49.136C38.5404 49.7653 38.7164 50.48 38.7164 51.28ZM37.2124 50.976C37.2124 50.4213 37.0897 49.9467 36.8444 49.552C36.599 49.1467 36.263 48.8427 35.8364 48.64C35.4204 48.4267 34.9564 48.32 34.4444 48.32C33.7084 48.32 33.079 48.5547 32.5564 49.024C32.0444 49.4933 31.751 50.144 31.6764 50.976H37.2124ZM40.0943 51.6C40.0943 50.6933 40.2756 49.904 40.6383 49.232C41.0009 48.5493 41.5023 48.0213 42.1423 47.648C42.7929 47.2747 43.5343 47.088 44.3663 47.088C45.4436 47.088 46.3289 47.3493 47.0223 47.872C47.7263 48.3947 48.1903 49.12 48.4143 50.048H46.8463C46.6969 49.5147 46.4036 49.0933 45.9663 48.784C45.5396 48.4747 45.0063 48.32 44.3663 48.32C43.5343 48.32 42.8623 48.608 42.3503 49.184C41.8383 49.7493 41.5823 50.5547 41.5823 51.6C41.5823 52.656 41.8383 53.472 42.3503 54.048C42.8623 54.624 43.5343 54.912 44.3663 54.912C45.0063 54.912 45.5396 54.7627 45.9663 54.464C46.3929 54.1653 46.6863 53.7387 46.8463 53.184H48.4143C48.1796 54.08 47.7103 54.8 47.0063 55.344C46.3023 55.8773 45.4223 56.144 44.3663 56.144C43.5343 56.144 42.7929 55.9573 42.1423 55.584C41.5023 55.2107 41.0009 54.6827 40.6383 54C40.2756 53.3173 40.0943 52.5173 40.0943 51.6ZM52.133 48.432V53.6C52.133 54.0267 52.2237 54.3307 52.405 54.512C52.5863 54.6827 52.901 54.768 53.349 54.768H54.421V56H53.109C52.2983 56 51.6903 55.8133 51.285 55.44C50.8797 55.0667 50.677 54.4533 50.677 53.6V48.432H49.541V47.232H50.677V45.024H52.133V47.232H54.421V48.432H52.133Z" fill="#5E5E5E"/>
<path d="M87 78V32" stroke="#D2D5E1" stroke-miterlimit="10"/>
<rect x="119" y="32" width="201" height="46" rx="20" fill="#6D64FF"/>
<path d="M161.127 60.612C160.391 60.612 159.73 60.484 159.143 60.228C158.567 59.9613 158.114 59.5987 157.783 59.14C157.453 58.6707 157.282 58.132 157.271 57.524H158.823C158.877 58.0467 159.09 58.4893 159.463 58.852C159.847 59.204 160.402 59.38 161.127 59.38C161.821 59.38 162.365 59.2093 162.759 58.868C163.165 58.516 163.367 58.068 163.367 57.524C163.367 57.0973 163.25 56.7507 163.015 56.484C162.781 56.2173 162.487 56.0147 162.135 55.876C161.783 55.7373 161.309 55.588 160.711 55.428C159.975 55.236 159.383 55.044 158.935 54.852C158.498 54.66 158.119 54.3613 157.799 53.956C157.49 53.54 157.335 52.9853 157.335 52.292C157.335 51.684 157.49 51.1453 157.799 50.676C158.109 50.2067 158.541 49.844 159.095 49.588C159.661 49.332 160.306 49.204 161.031 49.204C162.077 49.204 162.93 49.4653 163.591 49.988C164.263 50.5107 164.642 51.204 164.727 52.068H163.127C163.074 51.6413 162.85 51.268 162.455 50.948C162.061 50.6173 161.538 50.452 160.887 50.452C160.279 50.452 159.783 50.612 159.399 50.932C159.015 51.2413 158.823 51.6787 158.823 52.244C158.823 52.6493 158.935 52.98 159.159 53.236C159.394 53.492 159.677 53.6893 160.007 53.828C160.349 53.956 160.823 54.1053 161.431 54.276C162.167 54.4787 162.759 54.6813 163.207 54.884C163.655 55.076 164.039 55.38 164.359 55.796C164.679 56.2013 164.839 56.756 164.839 57.46C164.839 58.004 164.695 58.516 164.407 58.996C164.119 59.476 163.693 59.8653 163.127 60.164C162.562 60.4627 161.895 60.612 161.127 60.612ZM174.758 51.732V60.5H173.302V59.204C173.025 59.652 172.635 60.004 172.134 60.26C171.643 60.5053 171.099 60.628 170.502 60.628C169.819 60.628 169.206 60.4893 168.662 60.212C168.118 59.924 167.686 59.4973 167.366 58.932C167.057 58.3667 166.902 57.6787 166.902 56.868V51.732H168.342V56.676C168.342 57.54 168.561 58.2067 168.998 58.676C169.435 59.1347 170.033 59.364 170.79 59.364C171.569 59.364 172.182 59.124 172.63 58.644C173.078 58.164 173.302 57.4653 173.302 56.548V51.732H174.758ZM178.672 53.364C178.971 52.8413 179.408 52.4147 179.984 52.084C180.56 51.7533 181.216 51.588 181.952 51.588C182.742 51.588 183.451 51.7747 184.08 52.148C184.71 52.5213 185.206 53.0493 185.568 53.732C185.931 54.404 186.112 55.188 186.112 56.084C186.112 56.9693 185.931 57.7587 185.568 58.452C185.206 59.1453 184.704 59.684 184.064 60.068C183.435 60.452 182.731 60.644 181.952 60.644C181.195 60.644 180.528 60.4787 179.952 60.148C179.387 59.8173 178.96 59.396 178.672 58.884V60.5H177.216V48.66H178.672V53.364ZM184.624 56.084C184.624 55.4227 184.491 54.8467 184.224 54.356C183.958 53.8653 183.595 53.492 183.136 53.236C182.688 52.98 182.192 52.852 181.648 52.852C181.115 52.852 180.619 52.9853 180.16 53.252C179.712 53.508 179.35 53.8867 179.072 54.388C178.806 54.8787 178.672 55.4493 178.672 56.1C178.672 56.7613 178.806 57.3427 179.072 57.844C179.35 58.3347 179.712 58.7133 180.16 58.98C180.619 59.236 181.115 59.364 181.648 59.364C182.192 59.364 182.688 59.236 183.136 58.98C183.595 58.7133 183.958 58.3347 184.224 57.844C184.491 57.3427 184.624 56.756 184.624 56.084ZM198.573 51.572C199.256 51.572 199.864 51.716 200.397 52.004C200.93 52.2813 201.352 52.7027 201.661 53.268C201.97 53.8333 202.125 54.5213 202.125 55.332V60.5H200.685V55.54C200.685 54.6653 200.466 53.9987 200.029 53.54C199.602 53.0707 199.021 52.836 198.285 52.836C197.528 52.836 196.925 53.0813 196.477 53.572C196.029 54.052 195.805 54.7507 195.805 55.668V60.5H194.365V55.54C194.365 54.6653 194.146 53.9987 193.709 53.54C193.282 53.0707 192.701 52.836 191.965 52.836C191.208 52.836 190.605 53.0813 190.157 53.572C189.709 54.052 189.485 54.7507 189.485 55.668V60.5H188.029V51.732H189.485V52.996C189.773 52.5373 190.157 52.1853 190.637 51.94C191.128 51.6947 191.666 51.572 192.253 51.572C192.989 51.572 193.64 51.7373 194.205 52.068C194.77 52.3987 195.192 52.884 195.469 53.524C195.714 52.9053 196.12 52.4253 196.685 52.084C197.25 51.7427 197.88 51.572 198.573 51.572ZM205.265 50.308C204.988 50.308 204.753 50.212 204.561 50.02C204.369 49.828 204.273 49.5933 204.273 49.316C204.273 49.0387 204.369 48.804 204.561 48.612C204.753 48.42 204.988 48.324 205.265 48.324C205.532 48.324 205.756 48.42 205.937 48.612C206.129 48.804 206.225 49.0387 206.225 49.316C206.225 49.5933 206.129 49.828 205.937 50.02C205.756 50.212 205.532 50.308 205.265 50.308ZM205.969 51.732V60.5H204.513V51.732H205.969ZM210.227 52.932V58.1C210.227 58.5267 210.317 58.8307 210.499 59.012C210.68 59.1827 210.995 59.268 211.443 59.268H212.515V60.5H211.203C210.392 60.5 209.784 60.3133 209.379 59.94C208.973 59.5667 208.771 58.9533 208.771 58.1V52.932H207.635V51.732H208.771V49.524H210.227V51.732H212.515V52.932H210.227ZM216.055 52.932V58.1C216.055 58.5267 216.146 58.8307 216.327 59.012C216.508 59.1827 216.823 59.268 217.271 59.268H218.343V60.5H217.031C216.22 60.5 215.612 60.3133 215.207 59.94C214.802 59.5667 214.599 58.9533 214.599 58.1V52.932H213.463V51.732H214.599V49.524H216.055V51.732H218.343V52.932H216.055ZM228.107 55.78C228.107 56.0573 228.091 56.3507 228.059 56.66H221.051C221.104 57.524 221.398 58.2013 221.931 58.692C222.475 59.172 223.131 59.412 223.899 59.412C224.528 59.412 225.051 59.268 225.467 58.98C225.894 58.6813 226.192 58.2867 226.363 57.796H227.931C227.696 58.6387 227.227 59.3267 226.523 59.86C225.819 60.3827 224.944 60.644 223.899 60.644C223.067 60.644 222.32 60.4573 221.659 60.084C221.008 59.7107 220.496 59.1827 220.123 58.5C219.75 57.8067 219.563 57.0067 219.563 56.1C219.563 55.1933 219.744 54.3987 220.107 53.716C220.47 53.0333 220.976 52.5107 221.627 52.148C222.288 51.7747 223.046 51.588 223.899 51.588C224.731 51.588 225.467 51.7693 226.107 52.132C226.747 52.4947 227.238 52.996 227.579 53.636C227.931 54.2653 228.107 54.98 228.107 55.78ZM226.603 55.476C226.603 54.9213 226.48 54.4467 226.235 54.052C225.99 53.6467 225.654 53.3427 225.227 53.14C224.811 52.9267 224.347 52.82 223.835 52.82C223.099 52.82 222.47 53.0547 221.947 53.524C221.435 53.9933 221.142 54.644 221.067 55.476H226.603ZM229.485 56.084C229.485 55.188 229.666 54.404 230.029 53.732C230.392 53.0493 230.888 52.5213 231.517 52.148C232.157 51.7747 232.872 51.588 233.661 51.588C234.344 51.588 234.978 51.748 235.565 52.068C236.152 52.3773 236.6 52.788 236.909 53.3V48.66H238.381V60.5H236.909V58.852C236.621 59.3747 236.194 59.8067 235.629 60.148C235.064 60.4787 234.402 60.644 233.645 60.644C232.866 60.644 232.157 60.452 231.517 60.068C230.888 59.684 230.392 59.1453 230.029 58.452C229.666 57.7587 229.485 56.9693 229.485 56.084ZM236.909 56.1C236.909 55.4387 236.776 54.8627 236.509 54.372C236.242 53.8813 235.88 53.508 235.421 53.252C234.973 52.9853 234.477 52.852 233.933 52.852C233.389 52.852 232.893 52.98 232.445 53.236C231.997 53.492 231.64 53.8653 231.373 54.356C231.106 54.8467 230.973 55.4227 230.973 56.084C230.973 56.756 231.106 57.3427 231.373 57.844C231.64 58.3347 231.997 58.7133 232.445 58.98C232.893 59.236 233.389 59.364 233.933 59.364C234.477 59.364 234.973 59.236 235.421 58.98C235.88 58.7133 236.242 58.3347 236.509 57.844C236.776 57.3427 236.909 56.7613 236.909 56.1ZM248.579 49.348C249.795 49.348 250.846 49.5773 251.731 50.036C252.627 50.484 253.31 51.1293 253.779 51.972C254.259 52.8147 254.499 53.8067 254.499 54.948C254.499 56.0893 254.259 57.0813 253.779 57.924C253.31 58.756 252.627 59.396 251.731 59.844C250.846 60.2813 249.795 60.5 248.579 60.5H245.107V49.348H248.579ZM248.579 59.3C250.019 59.3 251.118 58.9213 251.875 58.164C252.632 57.396 253.011 56.324 253.011 54.948C253.011 53.5613 252.627 52.4787 251.859 51.7C251.102 50.9213 250.008 50.532 248.579 50.532H246.563V59.3H248.579ZM255.876 56.084C255.876 55.188 256.057 54.404 256.42 53.732C256.782 53.0493 257.278 52.5213 257.908 52.148C258.548 51.7747 259.257 51.588 260.036 51.588C260.804 51.588 261.47 51.7533 262.036 52.084C262.601 52.4147 263.022 52.8307 263.3 53.332V51.732H264.772V60.5H263.3V58.868C263.012 59.38 262.58 59.8067 262.004 60.148C261.438 60.4787 260.777 60.644 260.02 60.644C259.241 60.644 258.537 60.452 257.908 60.068C257.278 59.684 256.782 59.1453 256.42 58.452C256.057 57.7587 255.876 56.9693 255.876 56.084ZM263.3 56.1C263.3 55.4387 263.166 54.8627 262.9 54.372C262.633 53.8813 262.27 53.508 261.812 53.252C261.364 52.9853 260.868 52.852 260.324 52.852C259.78 52.852 259.284 52.98 258.836 53.236C258.388 53.492 258.03 53.8653 257.764 54.356C257.497 54.8467 257.364 55.4227 257.364 56.084C257.364 56.756 257.497 57.3427 257.764 57.844C258.03 58.3347 258.388 58.7133 258.836 58.98C259.284 59.236 259.78 59.364 260.324 59.364C260.868 59.364 261.364 59.236 261.812 58.98C262.27 58.7133 262.633 58.3347 262.9 57.844C263.166 57.3427 263.3 56.7613 263.3 56.1ZM269.008 52.932V58.1C269.008 58.5267 269.099 58.8307 269.28 59.012C269.461 59.1827 269.776 59.268 270.224 59.268H271.296V60.5H269.984C269.173 60.5 268.565 60.3133 268.16 59.94C267.755 59.5667 267.552 58.9533 267.552 58.1V52.932H266.416V51.732H267.552V49.524H269.008V51.732H271.296V52.932H269.008ZM272.516 56.084C272.516 55.188 272.697 54.404 273.06 53.732C273.423 53.0493 273.919 52.5213 274.548 52.148C275.188 51.7747 275.897 51.588 276.676 51.588C277.444 51.588 278.111 51.7533 278.676 52.084C279.241 52.4147 279.663 52.8307 279.94 53.332V51.732H281.412V60.5H279.94V58.868C279.652 59.38 279.22 59.8067 278.644 60.148C278.079 60.4787 277.417 60.644 276.66 60.644C275.881 60.644 275.177 60.452 274.548 60.068C273.919 59.684 273.423 59.1453 273.06 58.452C272.697 57.7587 272.516 56.9693 272.516 56.084ZM279.94 56.1C279.94 55.4387 279.807 54.8627 279.54 54.372C279.273 53.8813 278.911 53.508 278.452 53.252C278.004 52.9853 277.508 52.852 276.964 52.852C276.42 52.852 275.924 52.98 275.476 53.236C275.028 53.492 274.671 53.8653 274.404 54.356C274.137 54.8467 274.004 55.4227 274.004 56.084C274.004 56.756 274.137 57.3427 274.404 57.844C274.671 58.3347 275.028 58.7133 275.476 58.98C275.924 59.236 276.42 59.364 276.964 59.364C277.508 59.364 278.004 59.236 278.452 58.98C278.911 58.7133 279.273 58.3347 279.54 57.844C279.807 57.3427 279.94 56.7613 279.94 56.1Z" fill="white"/>
<path d="M352 78V32" stroke="#D2D5E1" stroke-miterlimit="10"/>
<path d="M388.971 56.112C388.235 56.112 387.574 55.984 386.987 55.728C386.411 55.4613 385.958 55.0987 385.627 54.64C385.296 54.1707 385.126 53.632 385.115 53.024H386.667C386.72 53.5467 386.934 53.9893 387.307 54.352C387.691 54.704 388.246 54.88 388.971 54.88C389.664 54.88 390.208 54.7093 390.603 54.368C391.008 54.016 391.211 53.568 391.211 53.024C391.211 52.5973 391.094 52.2507 390.859 51.984C390.624 51.7173 390.331 51.5147 389.979 51.376C389.627 51.2373 389.152 51.088 388.555 50.928C387.819 50.736 387.227 50.544 386.779 50.352C386.342 50.16 385.963 49.8613 385.643 49.456C385.334 49.04 385.179 48.4853 385.179 47.792C385.179 47.184 385.334 46.6453 385.643 46.176C385.952 45.7067 386.384 45.344 386.939 45.088C387.504 44.832 388.15 44.704 388.875 44.704C389.92 44.704 390.774 44.9653 391.435 45.488C392.107 46.0107 392.486 46.704 392.571 47.568H390.971C390.918 47.1413 390.694 46.768 390.299 46.448C389.904 46.1173 389.382 45.952 388.731 45.952C388.123 45.952 387.627 46.112 387.243 46.432C386.859 46.7413 386.667 47.1787 386.667 47.744C386.667 48.1493 386.779 48.48 387.003 48.736C387.238 48.992 387.52 49.1893 387.851 49.328C388.192 49.456 388.667 49.6053 389.275 49.776C390.011 49.9787 390.603 50.1813 391.051 50.384C391.499 50.576 391.883 50.88 392.203 51.296C392.523 51.7013 392.683 52.256 392.683 52.96C392.683 53.504 392.539 54.016 392.251 54.496C391.963 54.976 391.536 55.3653 390.971 55.664C390.406 55.9627 389.739 56.112 388.971 56.112ZM396.282 48.848C396.57 48.3467 396.996 47.9307 397.562 47.6C398.138 47.2587 398.804 47.088 399.562 47.088C400.34 47.088 401.044 47.2747 401.674 47.648C402.314 48.0213 402.815 48.5493 403.178 49.232C403.54 49.904 403.722 50.688 403.722 51.584C403.722 52.4693 403.54 53.2587 403.178 53.952C402.815 54.6453 402.314 55.184 401.674 55.568C401.044 55.952 400.34 56.144 399.562 56.144C398.815 56.144 398.154 55.9787 397.578 55.648C397.012 55.3067 396.58 54.8853 396.282 54.384V60.16H394.826V47.232H396.282V48.848ZM402.234 51.584C402.234 50.9227 402.1 50.3467 401.834 49.856C401.567 49.3653 401.204 48.992 400.746 48.736C400.298 48.48 399.802 48.352 399.258 48.352C398.724 48.352 398.228 48.4853 397.77 48.752C397.322 49.008 396.959 49.3867 396.682 49.888C396.415 50.3787 396.282 50.9493 396.282 51.6C396.282 52.2613 396.415 52.8427 396.682 53.344C396.959 53.8347 397.322 54.2133 397.77 54.48C398.228 54.736 398.724 54.864 399.258 54.864C399.802 54.864 400.298 54.736 400.746 54.48C401.204 54.2133 401.567 53.8347 401.834 53.344C402.1 52.8427 402.234 52.256 402.234 51.584ZM409.462 56.144C408.641 56.144 407.894 55.9573 407.222 55.584C406.561 55.2107 406.038 54.6827 405.654 54C405.281 53.3067 405.094 52.5067 405.094 51.6C405.094 50.704 405.286 49.9147 405.67 49.232C406.065 48.5387 406.598 48.0107 407.27 47.648C407.942 47.2747 408.694 47.088 409.526 47.088C410.358 47.088 411.11 47.2747 411.782 47.648C412.454 48.0107 412.982 48.5333 413.366 49.216C413.761 49.8987 413.958 50.6933 413.958 51.6C413.958 52.5067 413.756 53.3067 413.35 54C412.956 54.6827 412.417 55.2107 411.734 55.584C411.052 55.9573 410.294 56.144 409.462 56.144ZM409.462 54.864C409.985 54.864 410.476 54.7413 410.934 54.496C411.393 54.2507 411.761 53.8827 412.038 53.392C412.326 52.9013 412.47 52.304 412.47 51.6C412.47 50.896 412.332 50.2987 412.054 49.808C411.777 49.3173 411.414 48.9547 410.966 48.72C410.518 48.4747 410.033 48.352 409.51 48.352C408.977 48.352 408.486 48.4747 408.038 48.72C407.601 48.9547 407.249 49.3173 406.982 49.808C406.716 50.2987 406.582 50.896 406.582 51.6C406.582 52.3147 406.71 52.9173 406.966 53.408C407.233 53.8987 407.585 54.2667 408.022 54.512C408.46 54.7467 408.94 54.864 409.462 54.864ZM420.145 47.072C421.211 47.072 422.075 47.3973 422.737 48.048C423.398 48.688 423.729 49.616 423.729 50.832V56H422.289V51.04C422.289 50.1653 422.07 49.4987 421.633 49.04C421.195 48.5707 420.598 48.336 419.841 48.336C419.073 48.336 418.459 48.576 418.001 49.056C417.553 49.536 417.329 50.2347 417.329 51.152V56H415.873V47.232H417.329V48.48C417.617 48.032 418.006 47.6853 418.497 47.44C418.998 47.1947 419.547 47.072 420.145 47.072ZM429.211 56.144C428.539 56.144 427.936 56.032 427.403 55.808C426.87 55.5733 426.448 55.2533 426.139 54.848C425.83 54.432 425.659 53.9573 425.627 53.424H427.131C427.174 53.8613 427.376 54.2187 427.739 54.496C428.112 54.7733 428.598 54.912 429.195 54.912C429.75 54.912 430.187 54.7893 430.507 54.544C430.827 54.2987 430.987 53.9893 430.987 53.616C430.987 53.232 430.816 52.9493 430.475 52.768C430.134 52.576 429.606 52.3893 428.891 52.208C428.24 52.0373 427.707 51.8667 427.291 51.696C426.886 51.5147 426.534 51.2533 426.235 50.912C425.947 50.56 425.803 50.1013 425.803 49.536C425.803 49.088 425.936 48.6773 426.203 48.304C426.47 47.9307 426.848 47.6373 427.339 47.424C427.83 47.2 428.39 47.088 429.019 47.088C429.99 47.088 430.774 47.3333 431.371 47.824C431.968 48.3147 432.288 48.9867 432.331 49.84H430.875C430.843 49.3813 430.656 49.0133 430.315 48.736C429.984 48.4587 429.536 48.32 428.971 48.32C428.448 48.32 428.032 48.432 427.723 48.656C427.414 48.88 427.259 49.1733 427.259 49.536C427.259 49.824 427.35 50.064 427.531 50.256C427.723 50.4373 427.958 50.5867 428.235 50.704C428.523 50.8107 428.918 50.9333 429.419 51.072C430.048 51.2427 430.56 51.4133 430.955 51.584C431.35 51.744 431.686 51.9893 431.963 52.32C432.251 52.6507 432.4 53.0827 432.411 53.616C432.411 54.096 432.278 54.528 432.011 54.912C431.744 55.296 431.366 55.6 430.875 55.824C430.395 56.0373 429.84 56.144 429.211 56.144ZM438.29 56.144C437.469 56.144 436.722 55.9573 436.05 55.584C435.389 55.2107 434.866 54.6827 434.482 54C434.109 53.3067 433.922 52.5067 433.922 51.6C433.922 50.704 434.114 49.9147 434.498 49.232C434.893 48.5387 435.426 48.0107 436.098 47.648C436.77 47.2747 437.522 47.088 438.354 47.088C439.186 47.088 439.938 47.2747 440.61 47.648C441.282 48.0107 441.81 48.5333 442.194 49.216C442.589 49.8987 442.786 50.6933 442.786 51.6C442.786 52.5067 442.584 53.3067 442.178 54C441.784 54.6827 441.245 55.2107 440.562 55.584C439.88 55.9573 439.122 56.144 438.29 56.144ZM438.29 54.864C438.813 54.864 439.304 54.7413 439.762 54.496C440.221 54.2507 440.589 53.8827 440.866 53.392C441.154 52.9013 441.298 52.304 441.298 51.6C441.298 50.896 441.16 50.2987 440.882 49.808C440.605 49.3173 440.242 48.9547 439.794 48.72C439.346 48.4747 438.861 48.352 438.338 48.352C437.805 48.352 437.314 48.4747 436.866 48.72C436.429 48.9547 436.077 49.3173 435.81 49.808C435.544 50.2987 435.41 50.896 435.41 51.6C435.41 52.3147 435.538 52.9173 435.794 53.408C436.061 53.8987 436.413 54.2667 436.85 54.512C437.288 54.7467 437.768 54.864 438.29 54.864ZM446.157 48.656C446.413 48.1547 446.775 47.7653 447.245 47.488C447.725 47.2107 448.306 47.072 448.989 47.072V48.576H448.605C446.973 48.576 446.157 49.4613 446.157 51.232V56H444.701V47.232H446.157V48.656ZM453.774 56.144C453.102 56.144 452.499 56.032 451.966 55.808C451.432 55.5733 451.011 55.2533 450.702 54.848C450.392 54.432 450.222 53.9573 450.19 53.424H451.694C451.736 53.8613 451.939 54.2187 452.302 54.496C452.675 54.7733 453.16 54.912 453.758 54.912C454.312 54.912 454.75 54.7893 455.07 54.544C455.39 54.2987 455.55 53.9893 455.55 53.616C455.55 53.232 455.379 52.9493 455.038 52.768C454.696 52.576 454.168 52.3893 453.454 52.208C452.803 52.0373 452.27 51.8667 451.854 51.696C451.448 51.5147 451.096 51.2533 450.798 50.912C450.51 50.56 450.366 50.1013 450.366 49.536C450.366 49.088 450.499 48.6773 450.766 48.304C451.032 47.9307 451.411 47.6373 451.902 47.424C452.392 47.2 452.952 47.088 453.582 47.088C454.552 47.088 455.336 47.3333 455.934 47.824C456.531 48.3147 456.851 48.9867 456.894 49.84H455.438C455.406 49.3813 455.219 49.0133 454.878 48.736C454.547 48.4587 454.099 48.32 453.534 48.32C453.011 48.32 452.595 48.432 452.286 48.656C451.976 48.88 451.822 49.1733 451.822 49.536C451.822 49.824 451.912 50.064 452.094 50.256C452.286 50.4373 452.52 50.5867 452.798 50.704C453.086 50.8107 453.48 50.9333 453.982 51.072C454.611 51.2427 455.123 51.4133 455.518 51.584C455.912 51.744 456.248 51.9893 456.526 52.32C456.814 52.6507 456.963 53.0827 456.974 53.616C456.974 54.096 456.84 54.528 456.574 54.912C456.307 55.296 455.928 55.6 455.438 55.824C454.958 56.0373 454.403 56.144 453.774 56.144Z" fill="#5E5E5E"/>
<path d="M490 78V32" stroke="#D2D5E1" stroke-miterlimit="10"/>
<path d="M524.696 54.816H528.6V56H523.24V44.848H524.696V54.816ZM538.146 51.28C538.146 51.5573 538.13 51.8507 538.098 52.16H531.09C531.143 53.024 531.437 53.7013 531.97 54.192C532.514 54.672 533.17 54.912 533.938 54.912C534.567 54.912 535.09 54.768 535.506 54.48C535.933 54.1813 536.231 53.7867 536.402 53.296H537.97C537.735 54.1387 537.266 54.8267 536.562 55.36C535.858 55.8827 534.983 56.144 533.938 56.144C533.106 56.144 532.359 55.9573 531.698 55.584C531.047 55.2107 530.535 54.6827 530.162 54C529.789 53.3067 529.602 52.5067 529.602 51.6C529.602 50.6933 529.783 49.8987 530.146 49.216C530.509 48.5333 531.015 48.0107 531.666 47.648C532.327 47.2747 533.085 47.088 533.938 47.088C534.77 47.088 535.506 47.2693 536.146 47.632C536.786 47.9947 537.277 48.496 537.618 49.136C537.97 49.7653 538.146 50.48 538.146 51.28ZM536.642 50.976C536.642 50.4213 536.519 49.9467 536.274 49.552C536.029 49.1467 535.693 48.8427 535.266 48.64C534.85 48.4267 534.386 48.32 533.874 48.32C533.138 48.32 532.509 48.5547 531.986 49.024C531.474 49.4933 531.181 50.144 531.106 50.976H536.642ZM539.524 51.584C539.524 50.688 539.705 49.904 540.068 49.232C540.431 48.5493 540.927 48.0213 541.556 47.648C542.196 47.2747 542.905 47.088 543.684 47.088C544.452 47.088 545.119 47.2533 545.684 47.584C546.249 47.9147 546.671 48.3307 546.948 48.832V47.232H548.42V56H546.948V54.368C546.66 54.88 546.228 55.3067 545.652 55.648C545.087 55.9787 544.425 56.144 543.668 56.144C542.889 56.144 542.185 55.952 541.556 55.568C540.927 55.184 540.431 54.6453 540.068 53.952C539.705 53.2587 539.524 52.4693 539.524 51.584ZM546.948 51.6C546.948 50.9387 546.815 50.3627 546.548 49.872C546.281 49.3813 545.919 49.008 545.46 48.752C545.012 48.4853 544.516 48.352 543.972 48.352C543.428 48.352 542.932 48.48 542.484 48.736C542.036 48.992 541.679 49.3653 541.412 49.856C541.145 50.3467 541.012 50.9227 541.012 51.584C541.012 52.256 541.145 52.8427 541.412 53.344C541.679 53.8347 542.036 54.2133 542.484 54.48C542.932 54.736 543.428 54.864 543.972 54.864C544.516 54.864 545.012 54.736 545.46 54.48C545.919 54.2133 546.281 53.8347 546.548 53.344C546.815 52.8427 546.948 52.2613 546.948 51.6ZM550.336 51.584C550.336 50.688 550.518 49.904 550.88 49.232C551.243 48.5493 551.739 48.0213 552.368 47.648C553.008 47.2747 553.723 47.088 554.512 47.088C555.195 47.088 555.83 47.248 556.416 47.568C557.003 47.8773 557.451 48.288 557.76 48.8V44.16H559.232V56H557.76V54.352C557.472 54.8747 557.046 55.3067 556.48 55.648C555.915 55.9787 555.254 56.144 554.496 56.144C553.718 56.144 553.008 55.952 552.368 55.568C551.739 55.184 551.243 54.6453 550.88 53.952C550.518 53.2587 550.336 52.4693 550.336 51.584ZM557.76 51.6C557.76 50.9387 557.627 50.3627 557.36 49.872C557.094 49.3813 556.731 49.008 556.272 48.752C555.824 48.4853 555.328 48.352 554.784 48.352C554.24 48.352 553.744 48.48 553.296 48.736C552.848 48.992 552.491 49.3653 552.224 49.856C551.958 50.3467 551.824 50.9227 551.824 51.584C551.824 52.256 551.958 52.8427 552.224 53.344C552.491 53.8347 552.848 54.2133 553.296 54.48C553.744 54.736 554.24 54.864 554.784 54.864C555.328 54.864 555.824 54.736 556.272 54.48C556.731 54.2133 557.094 53.8347 557.36 53.344C557.627 52.8427 557.76 52.2613 557.76 51.6ZM569.693 51.28C569.693 51.5573 569.677 51.8507 569.645 52.16H562.637C562.69 53.024 562.984 53.7013 563.517 54.192C564.061 54.672 564.717 54.912 565.485 54.912C566.114 54.912 566.637 54.768 567.053 54.48C567.48 54.1813 567.778 53.7867 567.949 53.296H569.517C569.282 54.1387 568.813 54.8267 568.109 55.36C567.405 55.8827 566.53 56.144 565.485 56.144C564.653 56.144 563.906 55.9573 563.245 55.584C562.594 55.2107 562.082 54.6827 561.709 54C561.336 53.3067 561.149 52.5067 561.149 51.6C561.149 50.6933 561.33 49.8987 561.693 49.216C562.056 48.5333 562.562 48.0107 563.213 47.648C563.874 47.2747 564.632 47.088 565.485 47.088C566.317 47.088 567.053 47.2693 567.693 47.632C568.333 47.9947 568.824 48.496 569.165 49.136C569.517 49.7653 569.693 50.48 569.693 51.28ZM568.189 50.976C568.189 50.4213 568.066 49.9467 567.821 49.552C567.576 49.1467 567.24 48.8427 566.813 48.64C566.397 48.4267 565.933 48.32 565.421 48.32C564.685 48.32 564.056 48.5547 563.533 49.024C563.021 49.4933 562.728 50.144 562.653 50.976H568.189ZM573.071 48.656C573.327 48.1547 573.689 47.7653 574.159 47.488C574.639 47.2107 575.22 47.072 575.903 47.072V48.576H575.519C573.887 48.576 573.071 49.4613 573.071 51.232V56H571.615V47.232H573.071V48.656ZM579.04 48.864C579.338 48.3413 579.776 47.9147 580.352 47.584C580.928 47.2533 581.584 47.088 582.32 47.088C583.109 47.088 583.818 47.2747 584.448 47.648C585.077 48.0213 585.573 48.5493 585.936 49.232C586.298 49.904 586.48 50.688 586.48 51.584C586.48 52.4693 586.298 53.2587 585.936 53.952C585.573 54.6453 585.072 55.184 584.432 55.568C583.802 55.952 583.098 56.144 582.32 56.144C581.562 56.144 580.896 55.9787 580.32 55.648C579.754 55.3173 579.328 54.896 579.04 54.384V56H577.584V44.16H579.04V48.864ZM584.992 51.584C584.992 50.9227 584.858 50.3467 584.592 49.856C584.325 49.3653 583.962 48.992 583.504 48.736C583.056 48.48 582.56 48.352 582.016 48.352C581.482 48.352 580.986 48.4853 580.528 48.752C580.08 49.008 579.717 49.3867 579.44 49.888C579.173 50.3787 579.04 50.9493 579.04 51.6C579.04 52.2613 579.173 52.8427 579.44 53.344C579.717 53.8347 580.08 54.2133 580.528 54.48C580.986 54.736 581.482 54.864 582.016 54.864C582.56 54.864 583.056 54.736 583.504 54.48C583.962 54.2133 584.325 53.8347 584.592 53.344C584.858 52.8427 584.992 52.256 584.992 51.584ZM592.22 56.144C591.399 56.144 590.652 55.9573 589.98 55.584C589.319 55.2107 588.796 54.6827 588.412 54C588.039 53.3067 587.852 52.5067 587.852 51.6C587.852 50.704 588.044 49.9147 588.428 49.232C588.823 48.5387 589.356 48.0107 590.028 47.648C590.7 47.2747 591.452 47.088 592.284 47.088C593.116 47.088 593.868 47.2747 594.54 47.648C595.212 48.0107 595.74 48.5333 596.124 49.216C596.519 49.8987 596.716 50.6933 596.716 51.6C596.716 52.5067 596.513 53.3067 596.108 54C595.713 54.6827 595.175 55.2107 594.492 55.584C593.809 55.9573 593.052 56.144 592.22 56.144ZM592.22 54.864C592.743 54.864 593.233 54.7413 593.692 54.496C594.151 54.2507 594.519 53.8827 594.796 53.392C595.084 52.9013 595.228 52.304 595.228 51.6C595.228 50.896 595.089 50.2987 594.812 49.808C594.535 49.3173 594.172 48.9547 593.724 48.72C593.276 48.4747 592.791 48.352 592.268 48.352C591.735 48.352 591.244 48.4747 590.796 48.72C590.359 48.9547 590.007 49.3173 589.74 49.808C589.473 50.2987 589.34 50.896 589.34 51.6C589.34 52.3147 589.468 52.9173 589.724 53.408C589.991 53.8987 590.343 54.2667 590.78 54.512C591.217 54.7467 591.697 54.864 592.22 54.864ZM598.086 51.584C598.086 50.688 598.268 49.904 598.63 49.232C598.993 48.5493 599.489 48.0213 600.118 47.648C600.758 47.2747 601.468 47.088 602.246 47.088C603.014 47.088 603.681 47.2533 604.246 47.584C604.812 47.9147 605.233 48.3307 605.51 48.832V47.232H606.982V56H605.51V54.368C605.222 54.88 604.79 55.3067 604.214 55.648C603.649 55.9787 602.988 56.144 602.23 56.144C601.452 56.144 600.748 55.952 600.118 55.568C599.489 55.184 598.993 54.6453 598.63 53.952C598.268 53.2587 598.086 52.4693 598.086 51.584ZM605.51 51.6C605.51 50.9387 605.377 50.3627 605.11 49.872C604.844 49.3813 604.481 49.008 604.022 48.752C603.574 48.4853 603.078 48.352 602.534 48.352C601.99 48.352 601.494 48.48 601.046 48.736C600.598 48.992 600.241 49.3653 599.974 49.856C599.708 50.3467 599.574 50.9227 599.574 51.584C599.574 52.256 599.708 52.8427 599.974 53.344C600.241 53.8347 600.598 54.2133 601.046 54.48C601.494 54.736 601.99 54.864 602.534 54.864C603.078 54.864 603.574 54.736 604.022 54.48C604.481 54.2133 604.844 53.8347 605.11 53.344C605.377 52.8427 605.51 52.2613 605.51 51.6ZM610.899 48.656C611.155 48.1547 611.518 47.7653 611.987 47.488C612.467 47.2107 613.048 47.072 613.731 47.072V48.576H613.347C611.715 48.576 610.899 49.4613 610.899 51.232V56H609.443V47.232H610.899V48.656ZM614.868 51.584C614.868 50.688 615.049 49.904 615.412 49.232C615.774 48.5493 616.27 48.0213 616.9 47.648C617.54 47.2747 618.254 47.088 619.044 47.088C619.726 47.088 620.361 47.248 620.948 47.568C621.534 47.8773 621.982 48.288 622.292 48.8V44.16H623.764V56H622.292V54.352C622.004 54.8747 621.577 55.3067 621.012 55.648C620.446 55.9787 619.785 56.144 619.028 56.144C618.249 56.144 617.54 55.952 616.9 55.568C616.27 55.184 615.774 54.6453 615.412 53.952C615.049 53.2587 614.868 52.4693 614.868 51.584ZM622.292 51.6C622.292 50.9387 622.158 50.3627 621.892 49.872C621.625 49.3813 621.262 49.008 620.804 48.752C620.356 48.4853 619.86 48.352 619.316 48.352C618.772 48.352 618.276 48.48 617.828 48.736C617.38 48.992 617.022 49.3653 616.756 49.856C616.489 50.3467 616.356 50.9227 616.356 51.584C616.356 52.256 616.489 52.8427 616.756 53.344C617.022 53.8347 617.38 54.2133 617.828 54.48C618.276 54.736 618.772 54.864 619.316 54.864C619.86 54.864 620.356 54.736 620.804 54.48C621.262 54.2133 621.625 53.8347 621.892 53.344C622.158 52.8427 622.292 52.2613 622.292 51.6Z" fill="#5E5E5E"/>
<path d="M657 78V32" stroke="#D2D5E1" stroke-miterlimit="10"/>
<path d="M694.149 44.848C695.365 44.848 696.416 45.0773 697.301 45.536C698.197 45.984 698.88 46.6293 699.349 47.472C699.829 48.3147 700.069 49.3067 700.069 50.448C700.069 51.5893 699.829 52.5813 699.349 53.424C698.88 54.256 698.197 54.896 697.301 55.344C696.416 55.7813 695.365 56 694.149 56H690.677V44.848H694.149ZM694.149 54.8C695.589 54.8 696.688 54.4213 697.445 53.664C698.203 52.896 698.581 51.824 698.581 50.448C698.581 49.0613 698.197 47.9787 697.429 47.2C696.672 46.4213 695.579 46.032 694.149 46.032H692.133V54.8H694.149ZM709.99 51.28C709.99 51.5573 709.974 51.8507 709.942 52.16H702.934C702.987 53.024 703.28 53.7013 703.814 54.192C704.358 54.672 705.014 54.912 705.782 54.912C706.411 54.912 706.934 54.768 707.35 54.48C707.776 54.1813 708.075 53.7867 708.246 53.296H709.814C709.579 54.1387 709.11 54.8267 708.406 55.36C707.702 55.8827 706.827 56.144 705.782 56.144C704.95 56.144 704.203 55.9573 703.542 55.584C702.891 55.2107 702.379 54.6827 702.006 54C701.632 53.3067 701.446 52.5067 701.446 51.6C701.446 50.6933 701.627 49.8987 701.99 49.216C702.352 48.5333 702.859 48.0107 703.51 47.648C704.171 47.2747 704.928 47.088 705.782 47.088C706.614 47.088 707.35 47.2693 707.99 47.632C708.63 47.9947 709.12 48.496 709.462 49.136C709.814 49.7653 709.99 50.48 709.99 51.28ZM708.486 50.976C708.486 50.4213 708.363 49.9467 708.118 49.552C707.872 49.1467 707.536 48.8427 707.11 48.64C706.694 48.4267 706.23 48.32 705.718 48.32C704.982 48.32 704.352 48.5547 703.83 49.024C703.318 49.4933 703.024 50.144 702.95 50.976H708.486ZM713.688 48.432V53.6C713.688 54.0267 713.778 54.3307 713.96 54.512C714.141 54.6827 714.456 54.768 714.904 54.768H715.976V56H714.664C713.853 56 713.245 55.8133 712.84 55.44C712.434 55.0667 712.232 54.4533 712.232 53.6V48.432H711.096V47.232H712.232V45.024H713.688V47.232H715.976V48.432H713.688ZM717.196 51.584C717.196 50.688 717.377 49.904 717.74 49.232C718.102 48.5493 718.598 48.0213 719.228 47.648C719.868 47.2747 720.577 47.088 721.356 47.088C722.124 47.088 722.79 47.2533 723.356 47.584C723.921 47.9147 724.342 48.3307 724.62 48.832V47.232H726.092V56H724.62V54.368C724.332 54.88 723.9 55.3067 723.324 55.648C722.758 55.9787 722.097 56.144 721.34 56.144C720.561 56.144 719.857 55.952 719.228 55.568C718.598 55.184 718.102 54.6453 717.74 53.952C717.377 53.2587 717.196 52.4693 717.196 51.584ZM724.62 51.6C724.62 50.9387 724.486 50.3627 724.22 49.872C723.953 49.3813 723.59 49.008 723.132 48.752C722.684 48.4853 722.188 48.352 721.644 48.352C721.1 48.352 720.604 48.48 720.156 48.736C719.708 48.992 719.35 49.3653 719.084 49.856C718.817 50.3467 718.684 50.9227 718.684 51.584C718.684 52.256 718.817 52.8427 719.084 53.344C719.35 53.8347 719.708 54.2133 720.156 54.48C720.604 54.736 721.1 54.864 721.644 54.864C722.188 54.864 722.684 54.736 723.132 54.48C723.59 54.2133 723.953 53.8347 724.22 53.344C724.486 52.8427 724.62 52.2613 724.62 51.6ZM729.304 45.808C729.027 45.808 728.792 45.712 728.6 45.52C728.408 45.328 728.312 45.0933 728.312 44.816C728.312 44.5387 728.408 44.304 728.6 44.112C728.792 43.92 729.027 43.824 729.304 43.824C729.571 43.824 729.795 43.92 729.976 44.112C730.168 44.304 730.264 44.5387 730.264 44.816C730.264 45.0933 730.168 45.328 729.976 45.52C729.795 45.712 729.571 45.808 729.304 45.808ZM730.008 47.232V56H728.552V47.232H730.008ZM733.946 44.16V56H732.49V44.16H733.946ZM739.531 56.144C738.859 56.144 738.257 56.032 737.723 55.808C737.19 55.5733 736.769 55.2533 736.459 54.848C736.15 54.432 735.979 53.9573 735.947 53.424H737.451C737.494 53.8613 737.697 54.2187 738.059 54.496C738.433 54.7733 738.918 54.912 739.515 54.912C740.07 54.912 740.507 54.7893 740.827 54.544C741.147 54.2987 741.307 53.9893 741.307 53.616C741.307 53.232 741.137 52.9493 740.795 52.768C740.454 52.576 739.926 52.3893 739.211 52.208C738.561 52.0373 738.027 51.8667 737.611 51.696C737.206 51.5147 736.854 51.2533 736.555 50.912C736.267 50.56 736.123 50.1013 736.123 49.536C736.123 49.088 736.257 48.6773 736.523 48.304C736.79 47.9307 737.169 47.6373 737.659 47.424C738.15 47.2 738.71 47.088 739.339 47.088C740.31 47.088 741.094 47.3333 741.691 47.824C742.289 48.3147 742.609 48.9867 742.651 49.84H741.195C741.163 49.3813 740.977 49.0133 740.635 48.736C740.305 48.4587 739.857 48.32 739.291 48.32C738.769 48.32 738.353 48.432 738.043 48.656C737.734 48.88 737.579 49.1733 737.579 49.536C737.579 49.824 737.67 50.064 737.851 50.256C738.043 50.4373 738.278 50.5867 738.555 50.704C738.843 50.8107 739.238 50.9333 739.739 51.072C740.369 51.2427 740.881 51.4133 741.275 51.584C741.67 51.744 742.006 51.9893 742.283 52.32C742.571 52.6507 742.721 53.0827 742.731 53.616C742.731 54.096 742.598 54.528 742.331 54.912C742.065 55.296 741.686 55.6 741.195 55.824C740.715 56.0373 740.161 56.144 739.531 56.144Z" fill="#5E5E5E"/>
<path d="M776 78V32" stroke="#D2D5E1" stroke-miterlimit="10"/>
</svg>
