<svg width="407" height="46" viewBox="0 0 407 46" fill="none" xmlns="http://www.w3.org/2000/svg">
<path d="M33.137 14.945C32.493 14.571 32.095 13.875 32.096 13.125V13.122C32.097 11.95 31.158 11 30 11C28.842 11 27.903 11.95 27.903 13.122V13.125C27.904 13.876 27.507 14.571 26.862 14.945C22.195 17.657 24.877 26.66 20 28.251V30H40V28.251C35.123 26.66 37.805 17.657 33.137 14.945ZM30 12C30.552 12 31 12.449 31 13C31 13.552 30.552 14 30 14C29.448 14 29 13.552 29 13C29 12.449 29.448 12 30 12ZM33 32C33 33.598 31.608 35 30.029 35C28.45 35 27 33.598 27 32H33Z" fill="#F2AC44"/>
<circle cx="39.5" cy="13.5" r="2.5" fill="#EB5757"/>
<circle cx="80.5" cy="23" r="20.5" fill="#545C81"/>
<path d="M80.5004 13.7734C79.413 13.7734 78.3702 14.2054 77.6013 14.9743C76.8324 15.7432 76.4004 16.786 76.4004 17.8734C76.4004 18.9608 76.8324 20.0037 77.6013 20.7726C78.3702 21.5415 79.413 21.9734 80.5004 21.9734C81.5878 21.9734 82.6306 21.5415 83.3995 20.7726C84.1684 20.0037 84.6004 18.9608 84.6004 17.8734C84.6004 16.786 84.1684 15.7432 83.3995 14.9743C82.6306 14.2054 81.5878 13.7734 80.5004 13.7734ZM80.5004 25.0484C77.4213 25.0484 71.2754 26.5941 71.2754 29.6609V31.1984C71.2754 31.7642 71.7346 32.2234 72.3004 32.2234H88.7004C89.2662 32.2234 89.7254 31.7642 89.7254 31.1984V29.6609C89.7254 26.5941 83.5795 25.0484 80.5004 25.0484Z" fill="#545C81"/>
<path d="M116.312 7.832V14.744C116.312 15.5013 116.509 16.0827 116.904 16.488C117.299 16.8827 117.853 17.08 118.568 17.08C119.293 17.08 119.853 16.8827 120.248 16.488C120.643 16.0827 120.84 15.5013 120.84 14.744V7.832H123.096V14.728C123.096 15.6773 122.888 16.4827 122.472 17.144C122.067 17.7947 121.517 18.2853 120.824 18.616C120.141 18.9467 119.379 19.112 118.536 19.112C117.704 19.112 116.947 18.9467 116.264 18.616C115.592 18.2853 115.059 17.7947 114.664 17.144C114.269 16.4827 114.072 15.6773 114.072 14.728V7.832H116.312ZM128.652 19.144C127.927 19.144 127.276 19.016 126.7 18.76C126.124 18.4933 125.666 18.136 125.324 17.688C124.994 17.24 124.812 16.744 124.78 16.2H127.036C127.079 16.5413 127.244 16.824 127.532 17.048C127.831 17.272 128.199 17.384 128.636 17.384C129.063 17.384 129.394 17.2987 129.628 17.128C129.874 16.9573 129.996 16.7387 129.996 16.472C129.996 16.184 129.847 15.9707 129.548 15.832C129.26 15.6827 128.796 15.5227 128.156 15.352C127.495 15.192 126.951 15.0267 126.524 14.856C126.108 14.6853 125.746 14.424 125.436 14.072C125.138 13.72 124.988 13.2453 124.988 12.648C124.988 12.1573 125.127 11.7093 125.404 11.304C125.692 10.8987 126.098 10.5787 126.62 10.344C127.154 10.1093 127.778 9.992 128.492 9.992C129.548 9.992 130.391 10.2587 131.02 10.792C131.65 11.3147 131.996 12.024 132.06 12.92H129.916C129.884 12.568 129.735 12.2907 129.468 12.088C129.212 11.8747 128.866 11.768 128.428 11.768C128.023 11.768 127.708 11.8427 127.484 11.992C127.271 12.1413 127.164 12.3493 127.164 12.616C127.164 12.9147 127.314 13.144 127.612 13.304C127.911 13.4533 128.375 13.608 129.004 13.768C129.644 13.928 130.172 14.0933 130.588 14.264C131.004 14.4347 131.362 14.7013 131.66 15.064C131.97 15.416 132.13 15.8853 132.14 16.472C132.14 16.984 131.996 17.4427 131.708 17.848C131.431 18.2533 131.026 18.5733 130.492 18.808C129.97 19.032 129.356 19.144 128.652 19.144ZM142.219 14.376C142.219 14.696 142.198 14.984 142.155 15.24H135.675C135.728 15.88 135.952 16.3813 136.347 16.744C136.742 17.1067 137.227 17.288 137.803 17.288C138.635 17.288 139.227 16.9307 139.579 16.216H141.995C141.739 17.0693 141.248 17.7733 140.523 18.328C139.798 18.872 138.907 19.144 137.851 19.144C136.998 19.144 136.23 18.9573 135.547 18.584C134.875 18.2 134.347 17.6613 133.963 16.968C133.59 16.2747 133.403 15.4747 133.403 14.568C133.403 13.6507 133.59 12.8453 133.963 12.152C134.336 11.4587 134.859 10.9253 135.531 10.552C136.203 10.1787 136.976 9.992 137.851 9.992C138.694 9.992 139.446 10.1733 140.107 10.536C140.779 10.8987 141.296 11.416 141.659 12.088C142.032 12.7493 142.219 13.512 142.219 14.376ZM139.899 13.736C139.888 13.16 139.68 12.7013 139.275 12.36C138.87 12.008 138.374 11.832 137.787 11.832C137.232 11.832 136.763 12.0027 136.379 12.344C136.006 12.6747 135.776 13.1387 135.691 13.736H139.899ZM146.094 11.512C146.382 11.0427 146.755 10.6747 147.214 10.408C147.683 10.1413 148.217 10.008 148.814 10.008V12.36H148.222C147.518 12.36 146.985 12.5253 146.622 12.856C146.27 13.1867 146.094 13.7627 146.094 14.584V19H143.854V10.136H146.094V11.512ZM155.235 10.008C156.291 10.008 157.144 10.344 157.795 11.016C158.445 11.6773 158.771 12.6053 158.771 13.8V19H156.531V14.104C156.531 13.4 156.355 12.8613 156.003 12.488C155.651 12.104 155.171 11.912 154.563 11.912C153.944 11.912 153.453 12.104 153.091 12.488C152.739 12.8613 152.563 13.4 152.563 14.104V19H150.323V10.136H152.563V11.24C152.861 10.856 153.24 10.5573 153.699 10.344C154.168 10.12 154.68 10.008 155.235 10.008ZM160.325 14.536C160.325 13.64 160.501 12.8453 160.853 12.152C161.216 11.4587 161.701 10.9253 162.309 10.552C162.928 10.1787 163.616 9.992 164.373 9.992C165.034 9.992 165.61 10.1253 166.101 10.392C166.602 10.6587 167.002 10.9947 167.301 11.4V10.136H169.557V19H167.301V17.704C167.013 18.12 166.613 18.4667 166.101 18.744C165.6 19.0107 165.018 19.144 164.357 19.144C163.61 19.144 162.928 18.952 162.309 18.568C161.701 18.184 161.216 17.6453 160.853 16.952C160.501 16.248 160.325 15.4427 160.325 14.536ZM167.301 14.568C167.301 14.024 167.194 13.56 166.981 13.176C166.768 12.7813 166.48 12.4827 166.117 12.28C165.754 12.0667 165.365 11.96 164.949 11.96C164.533 11.96 164.149 12.0613 163.797 12.264C163.445 12.4667 163.157 12.7653 162.933 13.16C162.72 13.544 162.613 14.0027 162.613 14.536C162.613 15.0693 162.72 15.5387 162.933 15.944C163.157 16.3387 163.445 16.6427 163.797 16.856C164.16 17.0693 164.544 17.176 164.949 17.176C165.365 17.176 165.754 17.0747 166.117 16.872C166.48 16.6587 166.768 16.36 166.981 15.976C167.194 15.5813 167.301 15.112 167.301 14.568ZM182.753 10.008C183.841 10.008 184.715 10.344 185.377 11.016C186.049 11.6773 186.385 12.6053 186.385 13.8V19H184.145V14.104C184.145 13.4107 183.969 12.8827 183.617 12.52C183.265 12.1467 182.785 11.96 182.177 11.96C181.569 11.96 181.083 12.1467 180.721 12.52C180.369 12.8827 180.193 13.4107 180.193 14.104V19H177.953V14.104C177.953 13.4107 177.777 12.8827 177.425 12.52C177.073 12.1467 176.593 11.96 175.985 11.96C175.366 11.96 174.875 12.1467 174.513 12.52C174.161 12.8827 173.985 13.4107 173.985 14.104V19H171.745V10.136H173.985V11.208C174.273 10.8347 174.641 10.5413 175.089 10.328C175.547 10.1147 176.049 10.008 176.593 10.008C177.286 10.008 177.905 10.1573 178.449 10.456C178.993 10.744 179.414 11.16 179.713 11.704C180.001 11.192 180.417 10.7813 180.961 10.472C181.515 10.1627 182.113 10.008 182.753 10.008ZM196.75 14.376C196.75 14.696 196.729 14.984 196.686 15.24H190.206C190.26 15.88 190.484 16.3813 190.878 16.744C191.273 17.1067 191.758 17.288 192.334 17.288C193.166 17.288 193.758 16.9307 194.11 16.216H196.526C196.27 17.0693 195.78 17.7733 195.054 18.328C194.329 18.872 193.438 19.144 192.382 19.144C191.529 19.144 190.761 18.9573 190.078 18.584C189.406 18.2 188.878 17.6613 188.494 16.968C188.121 16.2747 187.934 15.4747 187.934 14.568C187.934 13.6507 188.121 12.8453 188.494 12.152C188.868 11.4587 189.39 10.9253 190.062 10.552C190.734 10.1787 191.508 9.992 192.382 9.992C193.225 9.992 193.977 10.1733 194.638 10.536C195.31 10.8987 195.828 11.416 196.19 12.088C196.564 12.7493 196.75 13.512 196.75 14.376ZM194.43 13.736C194.42 13.16 194.212 12.7013 193.806 12.36C193.401 12.008 192.905 11.832 192.318 11.832C191.764 11.832 191.294 12.0027 190.91 12.344C190.537 12.6747 190.308 13.1387 190.222 13.736H194.43Z" fill="#545C81"/>
<path d="M121.944 37C121.9 36.9782 121.834 36.9491 121.769 36.9127C120.574 36.2074 119.386 35.5021 118.191 34.7968C117.987 34.6805 117.943 34.5714 118.075 34.3605C119.335 32.2955 120.588 30.216 121.842 28.1364C121.951 27.9473 122.017 27.9619 122.126 28.1364C122.621 28.958 123.124 29.7724 123.62 30.5868C124.37 31.8302 125.121 33.0663 125.871 34.3097C126.061 34.6223 126.061 34.6296 125.74 34.8186C124.581 35.5094 123.423 36.1929 122.257 36.8837C122.17 36.9346 122.089 37 121.951 37H121.944Z" fill="#545C81"/>
<path d="M125.994 36.0394C126.024 36.1656 125.934 36.2366 125.882 36.3154C124.684 38.1056 123.495 39.8878 122.297 41.6779C122.245 41.7489 122.193 41.8199 122.14 41.8988C122.035 42.0486 121.961 42.0249 121.856 41.8751C120.584 39.9746 119.311 38.074 118.039 36.1735C118.009 36.1341 117.994 36.0867 118.002 36C118.144 36.0789 118.294 36.1577 118.436 36.2445C119.543 36.9384 120.658 37.6324 121.759 38.3343C121.938 38.4526 122.08 38.4447 122.252 38.3343C123.397 37.6088 124.55 36.8911 125.702 36.1735C125.792 36.1183 125.867 36.0394 125.987 36.0473L125.994 36.0394Z" fill="#545C81"/>
<path d="M136.689 35.138C136.689 33.6387 136.958 32.4643 137.495 31.615C138.041 30.7657 138.942 30.341 140.199 30.341C141.456 30.341 142.353 30.7657 142.89 31.615C143.436 32.4643 143.709 33.6387 143.709 35.138C143.709 36.646 143.436 37.829 142.89 38.687C142.353 39.545 141.456 39.974 140.199 39.974C138.942 39.974 138.041 39.545 137.495 38.687C136.958 37.829 136.689 36.646 136.689 35.138ZM141.915 35.138C141.915 34.4967 141.872 33.9593 141.785 33.526C141.707 33.084 141.542 32.7243 141.291 32.447C141.048 32.1697 140.684 32.031 140.199 32.031C139.714 32.031 139.345 32.1697 139.094 32.447C138.851 32.7243 138.687 33.084 138.6 33.526C138.522 33.9593 138.483 34.4967 138.483 35.138C138.483 35.7967 138.522 36.3513 138.6 36.802C138.678 37.244 138.843 37.6037 139.094 37.881C139.345 38.1497 139.714 38.284 140.199 38.284C140.684 38.284 141.053 38.1497 141.304 37.881C141.555 37.6037 141.72 37.244 141.798 36.802C141.876 36.3513 141.915 35.7967 141.915 35.138ZM147.29 38.089L145.769 41.742H144.599L145.444 38.089H147.29ZM148.394 35.138C148.394 33.6387 148.663 32.4643 149.2 31.615C149.746 30.7657 150.647 30.341 151.904 30.341C153.161 30.341 154.058 30.7657 154.595 31.615C155.141 32.4643 155.414 33.6387 155.414 35.138C155.414 36.646 155.141 37.829 154.595 38.687C154.058 39.545 153.161 39.974 151.904 39.974C150.647 39.974 149.746 39.545 149.2 38.687C148.663 37.829 148.394 36.646 148.394 35.138ZM153.62 35.138C153.62 34.4967 153.577 33.9593 153.49 33.526C153.412 33.084 153.247 32.7243 152.996 32.447C152.753 32.1697 152.389 32.031 151.904 32.031C151.419 32.031 151.05 32.1697 150.799 32.447C150.556 32.7243 150.392 33.084 150.305 33.526C150.227 33.9593 150.188 34.4967 150.188 35.138C150.188 35.7967 150.227 36.3513 150.305 36.802C150.383 37.244 150.548 37.6037 150.799 37.881C151.05 38.1497 151.419 38.284 151.904 38.284C152.389 38.284 152.758 38.1497 153.009 37.881C153.26 37.6037 153.425 37.244 153.503 36.802C153.581 36.3513 153.62 35.7967 153.62 35.138Z" fill="#545C81"/>
<path d="M171.41 37.1406L171.04 39.9706H169.38L171.08 29.3906H173.39L175.16 39.9706H173.45L173.03 37.1406H171.4H171.41ZM172.85 35.6406C172.61 33.8406 172.38 32.1406 172.26 30.9406H172.2C172.15 31.8106 171.84 34.0806 171.63 35.6406H172.86H172.85Z" fill="#545C81"/>
<path d="M175.94 29.3906H177.57V33.5706H179.33V29.3906H180.96V39.9706H179.33V35.0706H177.57V39.9706H175.94V29.3906Z" fill="#545C81"/>
<path d="M183.38 30.9104H181.68V29.4004H186.72V30.9104H185.01V39.9704H183.38V30.9104Z" fill="#545C81"/>
<path d="M192.689 35.138C192.689 33.6387 192.958 32.4643 193.495 31.615C194.041 30.7657 194.942 30.341 196.199 30.341C197.456 30.341 198.353 30.7657 198.89 31.615C199.436 32.4643 199.709 33.6387 199.709 35.138C199.709 36.646 199.436 37.829 198.89 38.687C198.353 39.545 197.456 39.974 196.199 39.974C194.942 39.974 194.041 39.545 193.495 38.687C192.958 37.829 192.689 36.646 192.689 35.138ZM197.915 35.138C197.915 34.4967 197.872 33.9593 197.785 33.526C197.707 33.084 197.542 32.7243 197.291 32.447C197.048 32.1697 196.684 32.031 196.199 32.031C195.714 32.031 195.345 32.1697 195.094 32.447C194.851 32.7243 194.687 33.084 194.6 33.526C194.522 33.9593 194.483 34.4967 194.483 35.138C194.483 35.7967 194.522 36.3513 194.6 36.802C194.678 37.244 194.843 37.6037 195.094 37.881C195.345 38.1497 195.714 38.284 196.199 38.284C196.684 38.284 197.053 38.1497 197.304 37.881C197.555 37.6037 197.72 37.244 197.798 36.802C197.876 36.3513 197.915 35.7967 197.915 35.138ZM203.29 38.089L201.769 41.742H200.599L201.444 38.089H203.29ZM204.394 35.138C204.394 33.6387 204.663 32.4643 205.2 31.615C205.746 30.7657 206.647 30.341 207.904 30.341C209.161 30.341 210.058 30.7657 210.595 31.615C211.141 32.4643 211.414 33.6387 211.414 35.138C211.414 36.646 211.141 37.829 210.595 38.687C210.058 39.545 209.161 39.974 207.904 39.974C206.647 39.974 205.746 39.545 205.2 38.687C204.663 37.829 204.394 36.646 204.394 35.138ZM209.62 35.138C209.62 34.4967 209.577 33.9593 209.49 33.526C209.412 33.084 209.247 32.7243 208.996 32.447C208.753 32.1697 208.389 32.031 207.904 32.031C207.419 32.031 207.05 32.1697 206.799 32.447C206.556 32.7243 206.392 33.084 206.305 33.526C206.227 33.9593 206.188 34.4967 206.188 35.138C206.188 35.7967 206.227 36.3513 206.305 36.802C206.383 37.244 206.548 37.6037 206.799 37.881C207.05 38.1497 207.419 38.284 207.904 38.284C208.389 38.284 208.758 38.1497 209.009 37.881C209.26 37.6037 209.425 37.244 209.503 36.802C209.581 36.3513 209.62 35.7967 209.62 35.138Z" fill="#545C81"/>
<rect x="275" width="132" height="46" rx="20" fill="#6D64FF"/>
<path d="M314.953 17.348V24.404C314.953 25.396 315.193 26.132 315.673 26.612C316.164 27.092 316.841 27.332 317.705 27.332C318.558 27.332 319.225 27.092 319.705 26.612C320.196 26.132 320.441 25.396 320.441 24.404V17.348H321.897V24.388C321.897 25.316 321.71 26.1 321.337 26.74C320.964 27.3693 320.457 27.8387 319.817 28.148C319.188 28.4573 318.478 28.612 317.689 28.612C316.9 28.612 316.185 28.4573 315.545 28.148C314.916 27.8387 314.414 27.3693 314.041 26.74C313.678 26.1 313.497 25.316 313.497 24.388V17.348H314.953ZM325.782 21.348C326.07 20.8467 326.496 20.4307 327.062 20.1C327.638 19.7587 328.304 19.588 329.062 19.588C329.84 19.588 330.544 19.7747 331.174 20.148C331.814 20.5213 332.315 21.0493 332.678 21.732C333.04 22.404 333.222 23.188 333.222 24.084C333.222 24.9693 333.04 25.7587 332.678 26.452C332.315 27.1453 331.814 27.684 331.174 28.068C330.544 28.452 329.84 28.644 329.062 28.644C328.315 28.644 327.654 28.4787 327.078 28.148C326.512 27.8067 326.08 27.3853 325.782 26.884V32.66H324.326V19.732H325.782V21.348ZM331.734 24.084C331.734 23.4227 331.6 22.8467 331.334 22.356C331.067 21.8653 330.704 21.492 330.246 21.236C329.798 20.98 329.302 20.852 328.758 20.852C328.224 20.852 327.728 20.9853 327.27 21.252C326.822 21.508 326.459 21.8867 326.182 22.388C325.915 22.8787 325.782 23.4493 325.782 24.1C325.782 24.7613 325.915 25.3427 326.182 25.844C326.459 26.3347 326.822 26.7133 327.27 26.98C327.728 27.236 328.224 27.364 328.758 27.364C329.302 27.364 329.798 27.236 330.246 26.98C330.704 26.7133 331.067 26.3347 331.334 25.844C331.6 25.3427 331.734 24.756 331.734 24.084ZM336.594 16.66V28.5H335.138V16.66H336.594ZM342.9 28.644C342.078 28.644 341.332 28.4573 340.66 28.084C339.998 27.7107 339.476 27.1827 339.092 26.5C338.718 25.8067 338.532 25.0067 338.532 24.1C338.532 23.204 338.724 22.4147 339.108 21.732C339.502 21.0387 340.036 20.5107 340.708 20.148C341.38 19.7747 342.132 19.588 342.964 19.588C343.796 19.588 344.548 19.7747 345.22 20.148C345.892 20.5107 346.42 21.0333 346.804 21.716C347.198 22.3987 347.396 23.1933 347.396 24.1C347.396 25.0067 347.193 25.8067 346.788 26.5C346.393 27.1827 345.854 27.7107 345.172 28.084C344.489 28.4573 343.732 28.644 342.9 28.644ZM342.9 27.364C343.422 27.364 343.913 27.2413 344.372 26.996C344.83 26.7507 345.198 26.3827 345.476 25.892C345.764 25.4013 345.908 24.804 345.908 24.1C345.908 23.396 345.769 22.7987 345.492 22.308C345.214 21.8173 344.852 21.4547 344.404 21.22C343.956 20.9747 343.47 20.852 342.948 20.852C342.414 20.852 341.924 20.9747 341.476 21.22C341.038 21.4547 340.686 21.8173 340.42 22.308C340.153 22.7987 340.02 23.396 340.02 24.1C340.02 24.8147 340.148 25.4173 340.404 25.908C340.67 26.3987 341.022 26.7667 341.46 27.012C341.897 27.2467 342.377 27.364 342.9 27.364ZM348.766 24.084C348.766 23.188 348.947 22.404 349.31 21.732C349.673 21.0493 350.169 20.5213 350.798 20.148C351.438 19.7747 352.147 19.588 352.926 19.588C353.694 19.588 354.361 19.7533 354.926 20.084C355.491 20.4147 355.913 20.8307 356.19 21.332V19.732H357.662V28.5H356.19V26.868C355.902 27.38 355.47 27.8067 354.894 28.148C354.329 28.4787 353.667 28.644 352.91 28.644C352.131 28.644 351.427 28.452 350.798 28.068C350.169 27.684 349.673 27.1453 349.31 26.452C348.947 25.7587 348.766 24.9693 348.766 24.084ZM356.19 24.1C356.19 23.4387 356.057 22.8627 355.79 22.372C355.523 21.8813 355.161 21.508 354.702 21.252C354.254 20.9853 353.758 20.852 353.214 20.852C352.67 20.852 352.174 20.98 351.726 21.236C351.278 21.492 350.921 21.8653 350.654 22.356C350.387 22.8467 350.254 23.4227 350.254 24.084C350.254 24.756 350.387 25.3427 350.654 25.844C350.921 26.3347 351.278 26.7133 351.726 26.98C352.174 27.236 352.67 27.364 353.214 27.364C353.758 27.364 354.254 27.236 354.702 26.98C355.161 26.7133 355.523 26.3347 355.79 25.844C356.057 25.3427 356.19 24.7613 356.19 24.1ZM359.579 24.084C359.579 23.188 359.76 22.404 360.123 21.732C360.485 21.0493 360.981 20.5213 361.611 20.148C362.251 19.7747 362.965 19.588 363.755 19.588C364.437 19.588 365.072 19.748 365.659 20.068C366.245 20.3773 366.693 20.788 367.003 21.3V16.66H368.475V28.5H367.003V26.852C366.715 27.3747 366.288 27.8067 365.723 28.148C365.157 28.4787 364.496 28.644 363.739 28.644C362.96 28.644 362.251 28.452 361.611 28.068C360.981 27.684 360.485 27.1453 360.123 26.452C359.76 25.7587 359.579 24.9693 359.579 24.084ZM367.003 24.1C367.003 23.4387 366.869 22.8627 366.603 22.372C366.336 21.8813 365.973 21.508 365.515 21.252C365.067 20.9853 364.571 20.852 364.027 20.852C363.483 20.852 362.987 20.98 362.539 21.236C362.091 21.492 361.733 21.8653 361.467 22.356C361.2 22.8467 361.067 23.4227 361.067 24.084C361.067 24.756 361.2 25.3427 361.467 25.844C361.733 26.3347 362.091 26.7133 362.539 26.98C362.987 27.236 363.483 27.364 364.027 27.364C364.571 27.364 365.067 27.236 365.515 26.98C365.973 26.7133 366.336 26.3347 366.603 25.844C366.869 25.3427 367.003 24.7613 367.003 24.1Z" fill="white"/>
</svg>
