<svg width="247" height="76" viewBox="0 0 247 76" fill="none" xmlns="http://www.w3.org/2000/svg">
<path d="M44.5018 56.5791C44.148 56.5791 43.7903 56.4924 43.4683 56.3113C40.4037 54.6184 36.9337 52.4649 34.4375 49.3704C32.7681 47.2995 31.2377 44.8231 31.3371 40.7365C31.4007 38.2049 33.3484 32.9766 38.9768 32.9766C41.624 32.9766 43.357 34.2089 44.5018 35.6774C45.6466 34.2128 47.3796 32.9766 50.0268 32.9766C55.6552 32.9766 57.6029 38.2049 57.6665 40.7365C57.7659 44.8231 56.2356 47.2995 54.5661 49.3704C52.0699 52.4649 48.5999 54.6145 45.5353 56.3113C45.2133 56.4885 44.8556 56.5791 44.5018 56.5791ZM38.9768 37.1734C35.9082 37.1734 35.5743 40.8309 35.5703 40.8664C35.4988 43.7207 36.5601 45.2798 37.7446 46.7522C39.5332 48.9688 41.9976 50.6302 44.4978 52.0672C46.998 50.6302 49.4624 48.9688 51.2511 46.7522C52.4356 45.2837 53.4969 43.7247 53.4253 40.8388C53.4253 40.8309 53.0875 37.1734 50.0229 37.1734C48.3813 37.1734 46.3978 40.2207 44.4978 40.2207C42.3315 40.2207 40.6184 37.1734 38.9768 37.1734Z" fill="#6D64FF"/>
<path d="M88.1578 43.2328H80.9752V50.9612H76.3564V32.1895H80.9752V39.5438H88.1578V32.1895H92.7765V50.9652H88.1578V43.2328Z" fill="#545C81"/>
<path d="M102.797 51.1786C98.3695 51.1786 95.1816 48.2377 95.1816 43.5014C95.1816 38.7691 98.3138 35.8242 102.797 35.8242C107.198 35.8242 110.306 38.714 110.306 43.2573C110.306 43.6865 110.278 44.1392 110.226 44.5959H99.7766C99.9395 46.5487 101.152 47.4581 102.638 47.4581C103.934 47.4581 104.666 46.8164 105.043 46.0133H109.956C109.221 48.9306 106.55 51.1786 102.797 51.1786ZM99.8004 42.0605H105.58C105.58 40.4305 104.284 39.4935 102.746 39.4935C101.231 39.4935 100.067 40.399 99.8004 42.0605Z" fill="#545C81"/>
<path d="M118.458 35.8281C120.7 35.8281 122.294 36.8439 123.101 38.1549V36.0407H127.719V50.966H123.101V48.8518C122.262 50.1629 120.672 51.1786 118.43 51.1786C114.757 51.1786 111.816 48.1825 111.816 43.4778C111.816 38.773 114.761 35.8281 118.458 35.8281ZM119.809 39.8124C118.08 39.8124 116.514 41.0959 116.514 43.4778C116.514 45.8597 118.08 47.1943 119.809 47.1943C121.566 47.1943 123.104 45.8833 123.104 43.5014C123.104 41.1234 121.562 39.8124 119.809 39.8124Z" fill="#545C81"/>
<path d="M131.07 31.1738H135.689V50.9653H131.07V31.1738Z" fill="#545C81"/>
<path d="M139.767 39.8394H137.931V36.0402H139.767V32.4023H144.386V36.0402H147.411V39.8394H144.386V45.8316C144.386 46.7135 144.763 47.0875 145.789 47.0875H147.435V50.9654H145.085C141.953 50.9654 139.767 49.6544 139.767 45.7764V39.8394Z" fill="#545C81"/>
<path d="M150.003 31.1738H154.621V38.0479C155.539 36.7644 157.185 35.8825 159.264 35.8825C162.694 35.8825 164.988 38.2369 164.988 42.2487V50.9692H160.397V42.8668C160.397 40.8353 159.264 39.7093 157.507 39.7093C155.75 39.7093 154.617 40.8314 154.617 42.8668V50.9692H149.999V31.1738H150.003Z" fill="#545C81"/>
<path d="M184.862 41.6865C184.862 47.4621 181.054 50.9661 174.869 50.9661H169.01V32.3242H174.869C181.054 32.3242 184.862 35.9069 184.862 41.6865ZM174.869 48.9582C179.782 48.9582 182.35 46.2298 182.35 41.6825C182.35 37.1353 179.782 34.3006 174.869 34.3006H171.467V48.9582H174.869Z" fill="#545C81"/>
<path d="M199.227 46.8195H191.019L189.509 50.9652H186.917L193.722 32.4297H196.556L203.333 50.9652H200.742L199.227 46.8195ZM195.125 35.4258L191.723 44.8392H198.528L195.125 35.4258Z" fill="#545C81"/>
<path d="M214.836 51.1508C209.542 51.1508 205.384 47.2177 205.384 41.6272C205.384 36.0366 209.542 32.1074 214.836 32.1074C220.155 32.1074 224.289 36.0405 224.289 41.6272C224.289 47.2138 220.159 51.1508 214.836 51.1508ZM214.836 49.0406C218.807 49.0406 221.777 46.1784 221.777 41.6311C221.777 37.0563 218.807 34.2216 214.836 34.2216C210.866 34.2216 207.896 37.0563 207.896 41.6311C207.896 46.1784 210.87 49.0406 214.836 49.0406Z" fill="#545C81"/>
<path d="M27.3704 50.2592V36.2709C27.3704 35.9048 27.1716 35.5662 26.8536 35.3812L24.4846 34.0268C23.6976 33.578 22.7158 34.141 22.7158 35.0386V54.8537C22.7158 55.712 23.1769 56.5073 23.9281 56.9364L41.2545 66.842C42.0415 67.2908 43.0233 66.7278 43.0233 65.8301V63.1175C43.0233 62.7514 42.8246 62.4128 42.5066 62.2278L30.272 55.2395C28.4754 54.212 27.3704 52.3143 27.3704 50.2592Z" fill="#6D64FF"/>
<path d="M58.7316 55.2408L46.505 62.233C46.1831 62.418 45.9883 62.7566 45.9883 63.1228V65.8354C45.9883 66.7369 46.9701 67.296 47.7571 66.8472L65.0835 56.9416C65.8347 56.5125 66.2958 55.7172 66.2958 54.8589V35.2407C66.2958 34.3785 65.3816 33.8116 64.5985 34.1895L62.2176 35.3391C61.8599 35.5124 61.6373 35.8706 61.6373 36.2604V50.2605C61.6333 52.3156 60.5283 54.2133 58.7316 55.2408Z" fill="#25CCDE"/>
<path d="M25.9633 31.4844L28.3324 32.8387C28.6543 33.0238 29.0478 33.0238 29.3698 32.8387L41.5964 25.8466C43.3931 24.819 45.607 24.819 47.4037 25.8466L59.6065 32.823C59.9046 32.9923 60.2703 33.008 60.5803 32.8584L63.1401 31.6222C63.629 31.386 63.8397 30.8938 63.784 30.4332H63.7999V27.2599H60.5962V28.067V30.4332H57.3925V27.2599H59.1851H60.5962V24.0867V20.9135H57.3925V24.0867H54.1887V24.4017V27.2599H50.985V24.0867H54.1887V20.9135H50.985V22.5709V24.0867H47.7813V20.9135H44.5776V19.2363V17.7441H41.3738V20.6418V20.9174H38.1701V22.4725V24.0867V27.2599H34.9664V24.3032V24.0867H31.7785V26.134V27.2599H28.5748H25.3711V30.4332H25.3751C25.3631 30.8387 25.5539 31.2521 25.9633 31.4844Z" fill="#6D64FF"/>
<path d="M31.7784 20.918H28.5747V24.0912H31.7784V20.918Z" fill="#25CCDE"/>
<path d="M38.1861 17.7441H34.9824V20.9174H38.1861V17.7441Z" fill="#6D64FF"/>
<path d="M50.5756 14.9844H48.2065V17.3308H50.5756V14.9844Z" fill="#6D64FF"/>
<path d="M47.0142 15.3418H45.3687V16.9717H47.0142V15.3418Z" fill="#25CCDE"/>
<path d="M44.148 11.8379H41.8267V14.1371H44.148V11.8379Z" fill="#6D64FF"/>
<path d="M47.0142 9H45.3687V10.6299H47.0142V9Z" fill="#25CCDE"/>
</svg>
