<svg width="51" height="13" viewBox="0 0 51 13" fill="none" xmlns="http://www.w3.org/2000/svg">
<path d="M6.0555 7.14H2.4075L1.7355 9H0.5835L3.6075 0.684H4.8675L7.8795 9H6.7275L6.0555 7.14ZM5.7435 6.252L4.2315 2.028L2.7195 6.252H5.7435ZM10.2894 3.636C10.5054 3.26 10.8254 2.948 11.2494 2.7C11.6814 2.444 12.1814 2.316 12.7494 2.316C13.3334 2.316 13.8614 2.456 14.3334 2.736C14.8134 3.016 15.1894 3.412 15.4614 3.924C15.7334 4.428 15.8694 5.016 15.8694 5.688C15.8694 6.352 15.7334 6.944 15.4614 7.464C15.1894 7.984 14.8134 8.388 14.3334 8.676C13.8614 8.964 13.3334 9.108 12.7494 9.108C12.1894 9.108 11.6934 8.984 11.2614 8.736C10.8374 8.48 10.5134 8.164 10.2894 7.788V12.12H9.19744V2.424H10.2894V3.636ZM14.7534 5.688C14.7534 5.192 14.6534 4.76 14.4534 4.392C14.2534 4.024 13.9814 3.744 13.6374 3.552C13.3014 3.36 12.9294 3.264 12.5214 3.264C12.1214 3.264 11.7494 3.364 11.4054 3.564C11.0694 3.756 10.7974 4.04 10.5894 4.416C10.3894 4.784 10.2894 5.212 10.2894 5.7C10.2894 6.196 10.3894 6.632 10.5894 7.008C10.7974 7.376 11.0694 7.66 11.4054 7.86C11.7494 8.052 12.1214 8.148 12.5214 8.148C12.9294 8.148 13.3014 8.052 13.6374 7.86C13.9814 7.66 14.2534 7.376 14.4534 7.008C14.6534 6.632 14.7534 6.192 14.7534 5.688ZM18.3988 3.636C18.6148 3.26 18.9348 2.948 19.3588 2.7C19.7908 2.444 20.2908 2.316 20.8588 2.316C21.4428 2.316 21.9708 2.456 22.4428 2.736C22.9228 3.016 23.2988 3.412 23.5708 3.924C23.8428 4.428 23.9788 5.016 23.9788 5.688C23.9788 6.352 23.8428 6.944 23.5708 7.464C23.2988 7.984 22.9228 8.388 22.4428 8.676C21.9708 8.964 21.4428 9.108 20.8588 9.108C20.2988 9.108 19.8028 8.984 19.3708 8.736C18.9468 8.48 18.6228 8.164 18.3988 7.788V12.12H17.3068V2.424H18.3988V3.636ZM22.8628 5.688C22.8628 5.192 22.7628 4.76 22.5628 4.392C22.3628 4.024 22.0908 3.744 21.7468 3.552C21.4108 3.36 21.0388 3.264 20.6308 3.264C20.2308 3.264 19.8588 3.364 19.5148 3.564C19.1788 3.756 18.9068 4.04 18.6988 4.416C18.4988 4.784 18.3988 5.212 18.3988 5.7C18.3988 6.196 18.4988 6.632 18.6988 7.008C18.9068 7.376 19.1788 7.66 19.5148 7.86C19.8588 8.052 20.2308 8.148 20.6308 8.148C21.0388 8.148 21.4108 8.052 21.7468 7.86C22.0908 7.66 22.3628 7.376 22.5628 7.008C22.7628 6.632 22.8628 6.192 22.8628 5.688ZM26.5082 3.492C26.7002 3.116 26.9722 2.824 27.3242 2.616C27.6842 2.408 28.1202 2.304 28.6322 2.304V3.432H28.3442C27.1202 3.432 26.5082 4.096 26.5082 5.424V9H25.4162V2.424H26.5082V3.492ZM32.7608 9.108C32.1448 9.108 31.5848 8.968 31.0808 8.688C30.5848 8.408 30.1928 8.012 29.9048 7.5C29.6248 6.98 29.4848 6.38 29.4848 5.7C29.4848 5.028 29.6288 4.436 29.9168 3.924C30.2128 3.404 30.6128 3.008 31.1168 2.736C31.6208 2.456 32.1848 2.316 32.8088 2.316C33.4328 2.316 33.9968 2.456 34.5008 2.736C35.0048 3.008 35.4008 3.4 35.6888 3.912C35.9848 4.424 36.1328 5.02 36.1328 5.7C36.1328 6.38 35.9808 6.98 35.6768 7.5C35.3808 8.012 34.9768 8.408 34.4648 8.688C33.9528 8.968 33.3848 9.108 32.7608 9.108ZM32.7608 8.148C33.1528 8.148 33.5208 8.056 33.8648 7.872C34.2088 7.688 34.4848 7.412 34.6928 7.044C34.9088 6.676 35.0168 6.228 35.0168 5.7C35.0168 5.172 34.9128 4.724 34.7048 4.356C34.4968 3.988 34.2248 3.716 33.8888 3.54C33.5528 3.356 33.1888 3.264 32.7968 3.264C32.3968 3.264 32.0288 3.356 31.6928 3.54C31.3648 3.716 31.1008 3.988 30.9008 4.356C30.7008 4.724 30.6008 5.172 30.6008 5.7C30.6008 6.236 30.6968 6.688 30.8888 7.056C31.0888 7.424 31.3528 7.7 31.6808 7.884C32.0088 8.06 32.3688 8.148 32.7608 8.148ZM40.0165 7.992L42.0565 2.424H43.2205L40.6405 9H39.3685L36.7885 2.424H37.9645L40.0165 7.992ZM50.2951 5.46C50.2951 5.668 50.2831 5.888 50.2591 6.12H45.0031C45.0431 6.768 45.2631 7.276 45.6631 7.644C46.0711 8.004 46.5631 8.184 47.1391 8.184C47.6111 8.184 48.0031 8.076 48.3151 7.86C48.6351 7.636 48.8591 7.34 48.9871 6.972H50.1631C49.9871 7.604 49.6351 8.12 49.1071 8.52C48.5791 8.912 47.9231 9.108 47.1391 9.108C46.5151 9.108 45.9551 8.968 45.4591 8.688C44.9711 8.408 44.5871 8.012 44.3071 7.5C44.0271 6.98 43.8871 6.38 43.8871 5.7C43.8871 5.02 44.0231 4.424 44.2951 3.912C44.5671 3.4 44.9471 3.008 45.4351 2.736C45.9311 2.456 46.4991 2.316 47.1391 2.316C47.7631 2.316 48.3151 2.452 48.7951 2.724C49.2751 2.996 49.6431 3.372 49.8991 3.852C50.1631 4.324 50.2951 4.86 50.2951 5.46ZM49.1671 5.232C49.1671 4.816 49.0751 4.46 48.8911 4.164C48.7071 3.86 48.4551 3.632 48.1351 3.48C47.8231 3.32 47.4751 3.24 47.0911 3.24C46.5391 3.24 46.0671 3.416 45.6751 3.768C45.2911 4.12 45.0711 4.608 45.0151 5.232H49.1671Z" fill="white"/>
</svg>
