<svg width="137" height="24" viewBox="0 0 137 24" fill="none" xmlns="http://www.w3.org/2000/svg">
<rect width="137" height="24" rx="12" fill="#EB5757"/>
<path d="M39.2811 16L37.2891 12.58H35.9691V16H34.8771V7.636H37.5771C38.2091 7.636 38.7411 7.744 39.1731 7.96C39.6131 8.176 39.9411 8.468 40.1571 8.836C40.3731 9.204 40.4811 9.624 40.4811 10.096C40.4811 10.672 40.3131 11.18 39.9771 11.62C39.6491 12.06 39.1531 12.352 38.4891 12.496L40.5891 16H39.2811ZM35.9691 11.704H37.5771C38.1691 11.704 38.6131 11.56 38.9091 11.272C39.2051 10.976 39.3531 10.584 39.3531 10.096C39.3531 9.6 39.2051 9.216 38.9091 8.944C38.6211 8.672 38.1771 8.536 37.5771 8.536H35.9691V11.704ZM48.1779 12.46C48.1779 12.668 48.1659 12.888 48.1419 13.12H42.8859C42.9259 13.768 43.1459 14.276 43.5459 14.644C43.9539 15.004 44.4459 15.184 45.0219 15.184C45.4939 15.184 45.8859 15.076 46.1979 14.86C46.5179 14.636 46.7419 14.34 46.8699 13.972H48.0459C47.8699 14.604 47.5179 15.12 46.9899 15.52C46.4619 15.912 45.8059 16.108 45.0219 16.108C44.3979 16.108 43.8379 15.968 43.3419 15.688C42.8539 15.408 42.4699 15.012 42.1899 14.5C41.9099 13.98 41.7699 13.38 41.7699 12.7C41.7699 12.02 41.9059 11.424 42.1779 10.912C42.4499 10.4 42.8299 10.008 43.3179 9.736C43.8139 9.456 44.3819 9.316 45.0219 9.316C45.6459 9.316 46.1979 9.452 46.6779 9.724C47.1579 9.996 47.5259 10.372 47.7819 10.852C48.0459 11.324 48.1779 11.86 48.1779 12.46ZM47.0499 12.232C47.0499 11.816 46.9579 11.46 46.7739 11.164C46.5899 10.86 46.3379 10.632 46.0179 10.48C45.7059 10.32 45.3579 10.24 44.9739 10.24C44.4219 10.24 43.9499 10.416 43.5579 10.768C43.1739 11.12 42.9539 11.608 42.8979 12.232H47.0499ZM50.2073 8.356C49.9993 8.356 49.8233 8.284 49.6793 8.14C49.5433 7.996 49.4753 7.82 49.4753 7.612C49.4753 7.404 49.5433 7.228 49.6793 7.084C49.8233 6.94 49.9993 6.868 50.2073 6.868C50.4153 6.868 50.5873 6.94 50.7233 7.084C50.8673 7.228 50.9393 7.404 50.9393 7.612C50.9393 7.82 50.8673 7.996 50.7233 8.14C50.5873 8.284 50.4153 8.356 50.2073 8.356ZM50.7473 17.428C50.7473 18.012 50.5993 18.44 50.3033 18.712C50.0073 18.984 49.5753 19.12 49.0073 19.12H48.3713V18.196H48.8273C49.1313 18.196 49.3433 18.136 49.4633 18.016C49.5913 17.896 49.6553 17.692 49.6553 17.404V9.424H50.7473V17.428ZM58.5959 12.46C58.5959 12.668 58.5839 12.888 58.5599 13.12H53.3039C53.3439 13.768 53.5639 14.276 53.9639 14.644C54.3719 15.004 54.8639 15.184 55.4399 15.184C55.9119 15.184 56.3039 15.076 56.6159 14.86C56.9359 14.636 57.1599 14.34 57.2879 13.972H58.4639C58.2879 14.604 57.9359 15.12 57.4079 15.52C56.8799 15.912 56.2239 16.108 55.4399 16.108C54.8159 16.108 54.2559 15.968 53.7599 15.688C53.2719 15.408 52.8879 15.012 52.6079 14.5C52.3279 13.98 52.1879 13.38 52.1879 12.7C52.1879 12.02 52.3239 11.424 52.5959 10.912C52.8679 10.4 53.2479 10.008 53.7359 9.736C54.2319 9.456 54.7999 9.316 55.4399 9.316C56.0639 9.316 56.6159 9.452 57.0959 9.724C57.5759 9.996 57.9439 10.372 58.1999 10.852C58.4639 11.324 58.5959 11.86 58.5959 12.46ZM57.4679 12.232C57.4679 11.816 57.3759 11.46 57.1919 11.164C57.0079 10.86 56.7559 10.632 56.4359 10.48C56.1239 10.32 55.7759 10.24 55.3919 10.24C54.8399 10.24 54.3679 10.416 53.9759 10.768C53.5919 11.12 53.3719 11.608 53.3159 12.232H57.4679ZM59.6293 12.7C59.6293 12.02 59.7653 11.428 60.0373 10.924C60.3093 10.412 60.6853 10.016 61.1653 9.736C61.6533 9.456 62.2093 9.316 62.8333 9.316C63.6413 9.316 64.3053 9.512 64.8253 9.904C65.3533 10.296 65.7013 10.84 65.8693 11.536H64.6933C64.5813 11.136 64.3613 10.82 64.0333 10.588C63.7133 10.356 63.3133 10.24 62.8333 10.24C62.2093 10.24 61.7053 10.456 61.3213 10.888C60.9373 11.312 60.7453 11.916 60.7453 12.7C60.7453 13.492 60.9373 14.104 61.3213 14.536C61.7053 14.968 62.2093 15.184 62.8333 15.184C63.3133 15.184 63.7133 15.072 64.0333 14.848C64.3533 14.624 64.5733 14.304 64.6933 13.888H65.8693C65.6933 14.56 65.3413 15.1 64.8133 15.508C64.2853 15.908 63.6253 16.108 62.8333 16.108C62.2093 16.108 61.6533 15.968 61.1653 15.688C60.6853 15.408 60.3093 15.012 60.0373 14.5C59.7653 13.988 59.6293 13.388 59.6293 12.7ZM68.6583 10.324V14.2C68.6583 14.52 68.7263 14.748 68.8623 14.884C68.9983 15.012 69.2343 15.076 69.5703 15.076H70.3743V16H69.3903C68.7823 16 68.3263 15.86 68.0223 15.58C67.7183 15.3 67.5663 14.84 67.5663 14.2V10.324H66.7143V9.424H67.5663V7.768H68.6583V9.424H70.3743V10.324H68.6583ZM77.5007 7.636C78.4127 7.636 79.2007 7.808 79.8647 8.152C80.5367 8.488 81.0487 8.972 81.4007 9.604C81.7607 10.236 81.9407 10.98 81.9407 11.836C81.9407 12.692 81.7607 13.436 81.4007 14.068C81.0487 14.692 80.5367 15.172 79.8647 15.508C79.2007 15.836 78.4127 16 77.5007 16H74.8967V7.636H77.5007ZM77.5007 15.1C78.5807 15.1 79.4047 14.816 79.9727 14.248C80.5407 13.672 80.8247 12.868 80.8247 11.836C80.8247 10.796 80.5367 9.984 79.9607 9.4C79.3927 8.816 78.5727 8.524 77.5007 8.524H75.9887V15.1H77.5007ZM82.973 12.688C82.973 12.016 83.109 11.428 83.381 10.924C83.653 10.412 84.025 10.016 84.497 9.736C84.977 9.456 85.509 9.316 86.093 9.316C86.669 9.316 87.169 9.44 87.593 9.688C88.017 9.936 88.333 10.248 88.541 10.624V9.424H89.645V16H88.541V14.776C88.325 15.16 88.001 15.48 87.569 15.736C87.145 15.984 86.649 16.108 86.081 16.108C85.497 16.108 84.969 15.964 84.497 15.676C84.025 15.388 83.653 14.984 83.381 14.464C83.109 13.944 82.973 13.352 82.973 12.688ZM88.541 12.7C88.541 12.204 88.441 11.772 88.241 11.404C88.041 11.036 87.769 10.756 87.425 10.564C87.089 10.364 86.717 10.264 86.309 10.264C85.901 10.264 85.529 10.36 85.193 10.552C84.857 10.744 84.589 11.024 84.389 11.392C84.189 11.76 84.089 12.192 84.089 12.688C84.089 13.192 84.189 13.632 84.389 14.008C84.589 14.376 84.857 14.66 85.193 14.86C85.529 15.052 85.901 15.148 86.309 15.148C86.717 15.148 87.089 15.052 87.425 14.86C87.769 14.66 88.041 14.376 88.241 14.008C88.441 13.632 88.541 13.196 88.541 12.7ZM92.8224 10.324V14.2C92.8224 14.52 92.8904 14.748 93.0264 14.884C93.1624 15.012 93.3984 15.076 93.7344 15.076H94.5384V16H93.5544C92.9464 16 92.4904 15.86 92.1864 15.58C91.8824 15.3 91.7304 14.84 91.7304 14.2V10.324H90.8784V9.424H91.7304V7.768H92.8224V9.424H94.5384V10.324H92.8224ZM95.4535 12.688C95.4535 12.016 95.5895 11.428 95.8615 10.924C96.1335 10.412 96.5055 10.016 96.9775 9.736C97.4575 9.456 97.9895 9.316 98.5735 9.316C99.1495 9.316 99.6495 9.44 100.074 9.688C100.498 9.936 100.814 10.248 101.022 10.624V9.424H102.126V16H101.022V14.776C100.806 15.16 100.482 15.48 100.05 15.736C99.6255 15.984 99.1295 16.108 98.5615 16.108C97.9775 16.108 97.4495 15.964 96.9775 15.676C96.5055 15.388 96.1335 14.984 95.8615 14.464C95.5895 13.944 95.4535 13.352 95.4535 12.688ZM101.022 12.7C101.022 12.204 100.922 11.772 100.722 11.404C100.522 11.036 100.25 10.756 99.9055 10.564C99.5695 10.364 99.1975 10.264 98.7895 10.264C98.3815 10.264 98.0095 10.36 97.6735 10.552C97.3375 10.744 97.0695 11.024 96.8695 11.392C96.6695 11.76 96.5695 12.192 96.5695 12.688C96.5695 13.192 96.6695 13.632 96.8695 14.008C97.0695 14.376 97.3375 14.66 97.6735 14.86C98.0095 15.052 98.3815 15.148 98.7895 15.148C99.1975 15.148 99.5695 15.052 99.9055 14.86C100.25 14.66 100.522 14.376 100.722 14.008C100.922 13.632 101.022 13.196 101.022 12.7Z" fill="white"/>
</svg>
