<svg width="23" height="22" viewBox="0 0 23 22" fill="none" xmlns="http://www.w3.org/2000/svg">
<path d="M0.625 11C0.625 17.0752 5.54987 22 11.625 22C17.7001 22 22.625 17.0752 22.625 11C22.625 4.9249 17.7001 0 11.625 0C5.54987 0 0.625 4.9249 0.625 11Z" fill="#F2AC44"/>
<path d="M10.4313 15.3878C10.0946 15.3878 9.7578 15.2551 9.4925 15L5.74762 11.2551C5.22721 10.7347 5.22721 9.89796 5.74762 9.38776C6.26803 8.87756 7.10475 8.86735 7.61495 9.38776L10.4211 12.1939L15.6252 6.99998C16.1456 6.47957 16.9823 6.47957 17.4925 6.99998C18.0027 7.52039 18.0129 8.35714 17.4925 8.86734L11.3599 15C11.1048 15.2551 10.768 15.3878 10.4211 15.3878H10.4313Z" fill="white"/>
</svg>
